<svg width="50" height="50" viewBox="0 0 50 50" fill="#23F0C7" xmlns="http://www.w3.org/2000/svg">
<path d="M17.6944 6.97222C17.1944 8.75 16.9444 10.6111 16.9444 12.5C16.9444 23.8333 26.1667 33.0556 37.5 33.0556C39.3889 33.0556 41.25 32.8056 43.0278 32.3056C40.1389 39.4167 33.1389 44.4444 25 44.4444C14.2778 44.4444 5.55556 35.7222 5.55556 25C5.55556 16.8611 10.5833 9.86111 17.6944 6.97222ZM25 0C11.1944 0 0 11.1944 0 25C0 38.8056 11.1944 50 25 50C38.8056 50 50 38.8056 50 25C50 23.7222 49.8889 22.4444 49.7222 21.2222C47 25.0278 42.5556 27.5 37.5 27.5C29.2222 27.5 22.5 20.7778 22.5 12.5C22.5 7.47222 24.9722 3 28.7778 0.277778C27.5556 0.111111 26.2778 0 25 0Z" fill="#F2F2F2"/>
</svg>
