<svg width="40" height="40" viewBox="0 0 40 40" fill="none" xmlns="http://www.w3.org/2000/svg">
<path d="M39.0625 9.87314L30.1249 0.937481C29.8277 0.640267 29.4749 0.404501 29.0867 0.243646C28.6984 0.0827915 28.2822 0 27.8619 0C27.4417 0 27.0255 0.0827915 26.6372 0.243646C26.249 0.404501 25.8962 0.640267 25.599 0.937481L0.93798 25.5985C0.639551 25.8946 0.402948 26.247 0.241925 26.6353C0.0809026 27.0236 -0.00132683 27.4401 1.61893e-05 27.8605V36.7981C1.61893e-05 37.6468 0.337145 38.4607 0.937238 39.0608C1.53733 39.6609 2.35123 39.998 3.19989 39.998H36.7986C37.2229 39.998 37.6299 39.8294 37.9299 39.5294C38.23 39.2293 38.3985 38.8224 38.3985 38.398C38.3985 37.9737 38.23 37.5668 37.9299 37.2667C37.6299 36.9667 37.2229 36.7981 36.7986 36.7981H16.6634L39.0625 14.399C39.3597 14.1018 39.5955 13.749 39.7564 13.3608C39.9172 12.9725 40 12.5563 40 12.1361C40 11.7158 39.9172 11.2996 39.7564 10.9113C39.5955 10.5231 39.3597 10.1703 39.0625 9.87314ZM12.1376 36.7981H3.19989V27.8605L20.7992 10.2611L29.7369 19.1988L12.1376 36.7981ZM31.9988 16.9369L23.0631 7.99921L27.863 3.19939L36.7986 12.1371L31.9988 16.9369Z" fill="#F2F2F2"/>
</svg>
