<svg width="50" height="50" viewBox="0 0 50 50" fill="none" xmlns="http://www.w3.org/2000/svg">
<path d="M48.8281 12.3414L37.6561 1.17185C37.2846 0.800334 36.8437 0.505626 36.3583 0.304558C35.873 0.103489 35.3528 0 34.8274 0C34.3021 0 33.7819 0.103489 33.2965 0.304558C32.8112 0.505626 32.3702 0.800334 31.9988 1.17185L1.17247 31.9982C0.799438 32.3682 0.503684 32.8088 0.302406 33.2942C0.101128 33.7795 -0.00165853 34.3001 2.02366e-05 34.8256V45.9976C2.02366e-05 47.0585 0.421431 48.0758 1.17155 48.826C1.92166 49.5761 2.93904 49.9975 3.99987 49.9975H45.9983C46.5287 49.9975 47.0374 49.7868 47.4124 49.4117C47.7875 49.0367 47.9982 48.528 47.9982 47.9976C47.9982 47.4671 47.7875 46.9585 47.4124 46.5834C47.0374 46.2083 46.5287 45.9976 45.9983 45.9976H20.8292L48.8281 17.9987C49.1997 17.6273 49.4944 17.1863 49.6954 16.7009C49.8965 16.2156 50 15.6954 50 15.1701C50 14.6447 49.8965 14.1245 49.6954 13.6392C49.4944 13.1538 49.1997 12.7129 48.8281 12.3414ZM15.1719 45.9976H3.99987V34.8256L25.999 12.8264L37.1711 23.9985L15.1719 45.9976ZM39.9985 21.1711L28.8289 9.99901L34.8287 3.99924L45.9983 15.1713L39.9985 21.1711Z" fill="#F2F2F2"/>
</svg>
