<svg width="50" height="51" viewBox="0 0 50 51" fill="#23F0C7" xmlns="http://www.w3.org/2000/svg">
<path d="M49.8633 12.0746C49.6857 11.5205 49.3475 11.0316 48.8917 10.6699C48.4359 10.3083 47.8829 10.0902 47.3029 10.0432L38.9944 9.34003L35.7531 1.78378C35.5244 1.25404 35.1455 0.802861 34.6634 0.485884C34.1812 0.168906 33.6168 0 33.0398 0C32.4628 0 31.8984 0.168906 31.4162 0.485884C30.9341 0.802861 30.5552 1.25404 30.3265 1.78378L27.0852 9.34226L18.7744 10.0432C18.1974 10.0896 17.6469 10.3058 17.1926 10.6646C16.7382 11.0234 16.4003 11.5087 16.2215 12.0593C16.0426 12.61 16.0309 13.2012 16.1877 13.7585C16.3444 14.3158 16.6628 14.8142 17.1025 15.1908L23.3885 20.5483L21.5067 28.5242C21.3744 29.0833 21.4097 29.6689 21.6082 30.208C21.8067 30.7471 22.1596 31.2159 22.6229 31.5556C23.0916 31.8998 23.6514 32.0982 24.2322 32.126C24.8131 32.1538 25.3893 32.0098 25.8887 31.7119L33.032 27.4706L40.1753 31.7119C40.6747 32.0098 41.2509 32.1538 41.8317 32.126C42.4126 32.0982 42.9724 31.8998 43.4411 31.5556C43.9046 31.2161 44.2576 30.7474 44.4561 30.2082C44.6547 29.669 44.6898 29.0833 44.5572 28.5242L42.6754 20.5483L48.9593 15.1908C49.4015 14.8192 49.7235 14.3247 49.8845 13.77C50.0454 13.2152 50.0381 12.6252 49.8633 12.0746ZM40.0726 18.1017C39.6613 18.4502 39.3546 18.9059 39.1867 19.4182C39.0189 19.9305 38.9963 20.4793 39.1216 21.0037L40.7534 27.9237L34.5522 24.2382C34.0945 23.9654 33.5715 23.8213 33.0387 23.8213C32.5058 23.8213 31.9829 23.9654 31.5252 24.2382L25.3239 27.9014L26.9557 20.9814C27.0828 20.4573 27.0614 19.9081 26.8938 19.3955C26.7263 18.8829 26.4192 18.4272 26.007 18.0794L20.5915 13.4764L27.7549 12.8693C28.2865 12.8247 28.796 12.6361 29.2286 12.3238C29.6612 12.0116 30.0006 11.5874 30.2104 11.0968L33.0387 4.51608L35.8603 11.0968C36.0704 11.5871 36.4099 12.011 36.8425 12.3232C37.275 12.6354 37.7843 12.8242 38.3158 12.8693L45.4791 13.4764L40.0726 18.1017ZM15.551 24.4771L3.05028 36.9778C2.71519 37.3129 2.26071 37.5012 1.78681 37.5012C1.31292 37.5012 0.858438 37.3129 0.523346 36.9778C0.188253 36.6427 0 36.1883 0 35.7144C0 35.2405 0.188253 34.786 0.523346 34.4509L13.0241 21.9502C13.3592 21.6151 13.8137 21.4268 14.2876 21.4268C14.7615 21.4268 15.2159 21.6151 15.551 21.9502C15.8861 22.2852 16.0744 22.7397 16.0744 23.2136C16.0744 23.6875 15.8861 24.142 15.551 24.4771ZM19.1227 36.9778L6.62192 49.4786C6.456 49.6445 6.25903 49.7761 6.04224 49.8659C5.82545 49.9557 5.5931 50.0019 5.35845 50.0019C5.12381 50.0019 4.89146 49.9557 4.67467 49.8659C4.45788 49.7761 4.26091 49.6445 4.09499 49.4786C3.92907 49.3127 3.79745 49.1157 3.70765 48.8989C3.61786 48.6821 3.57164 48.4498 3.57164 48.2151C3.57164 47.9805 3.61786 47.7481 3.70765 47.5313C3.79745 47.3145 3.92907 47.1176 4.09499 46.9516L16.5957 34.4509C16.9308 34.1158 17.3853 33.9276 17.8592 33.9276C18.3331 33.9276 18.7876 34.1158 19.1227 34.4509C19.4578 34.786 19.646 35.2405 19.646 35.7144C19.646 36.1883 19.4578 36.6427 19.1227 36.9778ZM35.1951 34.4509C35.3611 34.6168 35.4928 34.8137 35.5827 35.0305C35.6726 35.2473 35.7188 35.4797 35.7188 35.7144C35.7188 35.9491 35.6726 36.1814 35.5827 36.3982C35.4928 36.615 35.3611 36.812 35.1951 36.9778L22.6943 49.4786C22.5284 49.6445 22.3314 49.7761 22.1146 49.8659C21.8978 49.9557 21.6655 50.0019 21.4308 50.0019C21.1962 50.0019 20.9638 49.9557 20.7471 49.8659C20.5303 49.7761 20.3333 49.6445 20.1674 49.4786C20.0015 49.3127 19.8698 49.1157 19.78 48.8989C19.6902 48.6821 19.644 48.4498 19.644 48.2151C19.644 47.9805 19.6902 47.7481 19.78 47.5313C19.8698 47.3145 20.0015 47.1176 20.1674 46.9516L32.6681 34.4509C32.834 34.2849 33.0309 34.1531 33.2477 34.0633C33.4645 33.9734 33.6969 33.9271 33.9316 33.9271C34.1663 33.9271 34.3987 33.9734 34.6154 34.0633C34.8322 34.1531 35.0292 34.2849 35.1951 34.4509Z" fill="#F2F2F2"/>
</svg>
