<svg width="50" height="44" viewBox="0 0 50 44" fill="#23F0C7" xmlns="http://www.w3.org/2000/svg">
<path d="M17.2414 41.3797C17.2414 41.837 17.0597 42.2756 16.7364 42.5989C16.4131 42.9222 15.9745 43.1039 15.5172 43.1039H5.17241C4.71514 43.1039 4.2766 42.9222 3.95326 42.5989C3.62993 42.2756 3.44828 41.837 3.44828 41.3797C3.44828 40.9225 3.62993 40.4839 3.95326 40.1606C4.2766 39.8373 4.71514 39.6556 5.17241 39.6556H15.5172C15.9745 39.6556 16.4131 39.8373 16.7364 40.1606C17.0597 40.4839 17.2414 40.9225 17.2414 41.3797ZM10.3448 34.4832C10.3448 34.0259 10.1632 33.5874 9.83984 33.264C9.5165 32.9407 9.07796 32.7591 8.62069 32.7591H1.72414C1.26687 32.7591 0.828327 32.9407 0.504988 33.264C0.18165 33.5874 0 34.0259 0 34.4832C0 34.9405 0.18165 35.379 0.504988 35.7023C0.828327 36.0257 1.26687 36.2073 1.72414 36.2073H8.62069C9.07796 36.2073 9.5165 36.0257 9.83984 35.7023C10.1632 35.379 10.3448 34.9405 10.3448 34.4832ZM50 37.9315V39.6556C50 40.5701 49.6367 41.4472 48.99 42.0939C48.3433 42.7406 47.4663 43.1039 46.5517 43.1039H26.5754C25.6663 43.1057 24.7936 42.7468 24.1487 42.106L1.03017 19.703L1.01078 19.6836C0.364588 19.037 0.00159823 18.1603 0.00159823 17.2461C0.00159823 16.332 0.364588 15.4552 1.01078 14.8086L14.8039 0.989654L14.8362 0.959481C15.4855 0.333972 16.355 -0.0106403 17.2566 0.000250497C18.1581 0.0111413 19.019 0.376659 19.653 1.01767L21.4224 2.80215C22.0277 3.40831 22.3857 4.21806 22.4267 5.07371C22.6703 10.0047 26.0905 13.3302 31.3297 13.7526C32.1881 13.8263 32.9878 14.2188 33.5713 14.8526C34.1548 15.4864 34.48 16.3156 34.4828 17.1772V22.4142C34.4828 24.2433 35.2094 25.9975 36.5027 27.2908C37.7961 28.5842 39.5502 29.3108 41.3793 29.3108C43.6657 29.3108 45.8584 30.219 47.4751 31.8357C49.0918 33.4524 50 35.6451 50 37.9315ZM46.5517 37.9315C46.5517 36.5597 46.0068 35.244 45.0368 34.274C44.0667 33.304 42.7511 32.7591 41.3793 32.7591C39.3477 32.7615 37.3609 32.1615 35.6703 31.0349H29.3103C28.8531 31.0349 28.4145 30.8533 28.0912 30.5299C27.7679 30.2066 27.5862 29.768 27.5862 29.3108C27.5862 28.8535 27.7679 28.415 28.0912 28.0916C28.4145 27.7683 28.8531 27.5866 29.3103 27.5866H32.4267C31.808 26.5213 31.386 25.3532 31.181 24.1384H27.5862C27.1289 24.1384 26.6904 23.9567 26.3671 23.6334C26.0437 23.31 25.8621 22.8715 25.8621 22.4142C25.8621 21.957 26.0437 21.5184 26.3671 21.1951C26.6904 20.8717 27.1289 20.6901 27.5862 20.6901H31.0345V17.1772C27.7091 16.9056 24.8103 15.6685 22.6552 13.5996C20.4159 11.4444 19.1466 8.55431 18.9914 5.23103L17.2134 3.4487L3.44828 17.2418L26.556 39.634L26.5754 39.6513H46.5517V37.9315Z" fill="#F2F2F2"/>
</svg>
