<svg width="50" height="50" viewBox="0 0 50 50" fill="#23F0C7" xmlns="http://www.w3.org/2000/svg">
<path d="M25 18.1818C28.75 18.1818 31.8182 21.25 31.8182 25C31.8182 28.75 28.75 31.8182 25 31.8182C21.25 31.8182 18.1818 28.75 18.1818 25C18.1818 21.25 21.25 18.1818 25 18.1818ZM25 13.6364C18.7273 13.6364 13.6364 18.7273 13.6364 25C13.6364 31.2727 18.7273 36.3636 25 36.3636C31.2727 36.3636 36.3636 31.2727 36.3636 25C36.3636 18.7273 31.2727 13.6364 25 13.6364ZM2.27273 27.2727H6.81818C8.06818 27.2727 9.09091 26.25 9.09091 25C9.09091 23.75 8.06818 22.7273 6.81818 22.7273H2.27273C1.02273 22.7273 0 23.75 0 25C0 26.25 1.02273 27.2727 2.27273 27.2727ZM43.1818 27.2727H47.7273C48.9773 27.2727 50 26.25 50 25C50 23.75 48.9773 22.7273 47.7273 22.7273H43.1818C41.9318 22.7273 40.9091 23.75 40.9091 25C40.9091 26.25 41.9318 27.2727 43.1818 27.2727ZM22.7273 2.27273V6.81818C22.7273 8.06818 23.75 9.09091 25 9.09091C26.25 9.09091 27.2727 8.06818 27.2727 6.81818V2.27273C27.2727 1.02273 26.25 0 25 0C23.75 0 22.7273 1.02273 22.7273 2.27273ZM22.7273 43.1818V47.7273C22.7273 48.9773 23.75 50 25 50C26.25 50 27.2727 48.9773 27.2727 47.7273V43.1818C27.2727 41.9318 26.25 40.9091 25 40.9091C23.75 40.9091 22.7273 41.9318 22.7273 43.1818ZM11.3409 8.13636C10.4545 7.25 9 7.25 8.13636 8.13636C7.25 9.02273 7.25 10.4773 8.13636 11.3409L10.5455 13.75C11.4318 14.6364 12.8864 14.6364 13.75 13.75C14.6136 12.8636 14.6364 11.4091 13.75 10.5455L11.3409 8.13636ZM39.4545 36.25C38.5682 35.3636 37.1136 35.3636 36.25 36.25C35.3636 37.1364 35.3636 38.5909 36.25 39.4545L38.6591 41.8636C39.5455 42.75 41 42.75 41.8636 41.8636C42.75 40.9773 42.75 39.5227 41.8636 38.6591L39.4545 36.25ZM41.8636 11.3409C42.75 10.4545 42.75 9 41.8636 8.13636C40.9773 7.25 39.5227 7.25 38.6591 8.13636L36.25 10.5455C35.3636 11.4318 35.3636 12.8864 36.25 13.75C37.1364 14.6136 38.5909 14.6364 39.4545 13.75L41.8636 11.3409ZM13.75 39.4545C14.6364 38.5682 14.6364 37.1136 13.75 36.25C12.8636 35.3636 11.4091 35.3636 10.5455 36.25L8.13636 38.6591C7.25 39.5455 7.25 41 8.13636 41.8636C9.02273 42.7273 10.4773 42.75 11.3409 41.8636L13.75 39.4545Z" fill="#F2F2F2"/>
</svg>
