<svg id="Capa_1" data-name="Capa 1" xmlns="http://www.w3.org/2000/svg" viewBox="0 0 472.16 129.09"><defs><style>.cls-1{font-size:89.13px;fill:#5ebca4;font-family:ComicSansMS-BoldItalic, Comic Sans MS;font-weight:700;font-style:italic;}.cls-2{fill:#1d1d1b;}</style></defs><text class="cls-1" transform="translate(32.77 97.51)">@</text><path class="cls-2" d="M123.91,78.62c.38.09,1,.2,1.72.34a14.58,14.58,0,0,0,2.43.2,13.93,13.93,0,0,0,1.66-.08,3.73,3.73,0,0,0,1.64-.56,3.84,3.84,0,0,0,1.25-1.43,5.75,5.75,0,0,0,.53-2.68l.15-22-7-.05a23.56,23.56,0,0,1-.54-5,23.85,23.85,0,0,1,.6-4.91l18.28.12-.22,33.23a15.29,15.29,0,0,1-1.2,6.22,11.05,11.05,0,0,1-3.16,4.17,12.68,12.68,0,0,1-4.65,2.3,21.4,21.4,0,0,1-5.72.7,24.45,24.45,0,0,1-3.71-.32,24.74,24.74,0,0,1-3.31-.75c0-.35-.07-.69-.09-1s0-.7,0-1.08A22.2,22.2,0,0,1,123.91,78.62Z"/><path class="cls-2" d="M149.86,77.72a9.35,9.35,0,0,1,1.38-5.17,10.15,10.15,0,0,1,3.47-3.24,14.81,14.81,0,0,1,4.68-1.66,26.12,26.12,0,0,1,5-.44l3.9,0a3.46,3.46,0,0,0-.63-1.92,3.86,3.86,0,0,0-1.46-1.19,7.14,7.14,0,0,0-2-.59,16.23,16.23,0,0,0-2.23-.18,22.74,22.74,0,0,0-3.58.33,26.37,26.37,0,0,0-4.23,1.09c-.38-.73-.7-1.39-1-2a9.31,9.31,0,0,1-.62-1.82,13.26,13.26,0,0,1-.31-1.92,22.37,22.37,0,0,1-.08-2.27,39.66,39.66,0,0,1,6.11-1.49,33.12,33.12,0,0,1,5.47-.48,21.31,21.31,0,0,1,6,.84,12,12,0,0,1,4.55,2.49,10.9,10.9,0,0,1,2.88,4.27,16.71,16.71,0,0,1,1,6.18l-.12,18.72q-2.45.69-5.89,1.37a36.56,36.56,0,0,1-7.29.65,28.11,28.11,0,0,1-6.1-.65,13.29,13.29,0,0,1-4.75-2A9.19,9.19,0,0,1,151,83.12,11.79,11.79,0,0,1,149.86,77.72Zm15.06,3.68a16.31,16.31,0,0,0,1.66-.12,14.61,14.61,0,0,0,1.6-.24l0-7-3.64,0a7,7,0,0,0-3.78.93,3,3,0,0,0-1.55,2.68,3.14,3.14,0,0,0,.56,2,3.67,3.67,0,0,0,1.43,1.13,6.59,6.59,0,0,0,1.85.53A15.55,15.55,0,0,0,164.92,81.4Z"/><path class="cls-2" d="M200.93,68.16a20.71,20.71,0,0,1,3.47,1.27,9,9,0,0,1,2.67,1.9,8,8,0,0,1,1.74,2.82,11.3,11.3,0,0,1,.61,4,10.54,10.54,0,0,1-1,4.53,10.06,10.06,0,0,1-3,3.62,14.94,14.94,0,0,1-4.81,2.39,21.57,21.57,0,0,1-6.56.85,33.43,33.43,0,0,1-5.68-.48,30.88,30.88,0,0,1-5.55-1.57,25.76,25.76,0,0,1,2.42-8.81,19.77,19.77,0,0,0,4.27,1.47,21.28,21.28,0,0,0,4.47.51c.52,0,1.05,0,1.6,0a5.57,5.57,0,0,0,1.47-.28,3.1,3.1,0,0,0,1.06-.6,1.38,1.38,0,0,0-.4-2.27,11.89,11.89,0,0,0-1.91-.75l-4.34-1.24a12.46,12.46,0,0,1-5.6-3.3,8.61,8.61,0,0,1-2.19-6.28,9.84,9.84,0,0,1,3.95-8A13.48,13.48,0,0,1,192,55.76a19.33,19.33,0,0,1,5.6-.73,30.7,30.7,0,0,1,5.3.55,39.34,39.34,0,0,1,5.68,1.51,19.7,19.7,0,0,1-.86,4.37,25.69,25.69,0,0,1-1.63,4.11,28.79,28.79,0,0,0-4.14-1.3,19.33,19.33,0,0,0-4.47-.61c-2,0-3,.53-3,1.64a1.19,1.19,0,0,0,.7,1.09,7.44,7.44,0,0,0,1.59.65Z"/><path class="cls-2" d="M213.42,72.59a22.86,22.86,0,0,1,1.11-7.12A15,15,0,0,1,217.7,60a13.84,13.84,0,0,1,5.16-3.51,21,21,0,0,1,14.26.1,13.84,13.84,0,0,1,5.12,3.58,15.17,15.17,0,0,1,3.09,5.55,23,23,0,0,1,1,7.13,22,22,0,0,1-1.11,7,14.78,14.78,0,0,1-3.16,5.41,13.59,13.59,0,0,1-5.17,3.45,21.52,21.52,0,0,1-14.26-.09,13.91,13.91,0,0,1-5.12-3.52,15,15,0,0,1-3.09-5.46A22.18,22.18,0,0,1,213.42,72.59Zm22,.15a11.79,11.79,0,0,0-1.33-6.27,4.61,4.61,0,0,0-4.18-2.2,4.51,4.51,0,0,0-4.16,2.14,12,12,0,0,0-1.39,6.25,11.87,11.87,0,0,0,1.3,6.21,4.52,4.52,0,0,0,4.14,2.2,4.61,4.61,0,0,0,4.2-2.14A11.61,11.61,0,0,0,235.41,72.74Z"/><path class="cls-2" d="M265.43,55.62a34.35,34.35,0,0,1,5.62.52,12.74,12.74,0,0,1,5.07,2,11.23,11.23,0,0,1,3.68,4.43,17.25,17.25,0,0,1,1.38,7.62l-.13,19.11a27.54,27.54,0,0,1-3,.39c-.9.06-1.69.09-2.37.08s-1.53,0-2.43-.11a26.24,26.24,0,0,1-3-.44l.12-18q0-3.37-1.24-4.86a4.91,4.91,0,0,0-3.89-1.5,10.07,10.07,0,0,0-1.5.12,3.19,3.19,0,0,0-1,.25l-.17,23.9a25.46,25.46,0,0,1-3,.4c-.9,0-1.69.08-2.37.08s-1.53,0-2.43-.12a26,26,0,0,1-3-.43L252,57.77c1.49-.5,3.31-1,5.44-1.47A36.85,36.85,0,0,1,265.43,55.62Z"/><path class="cls-2" d="M285.7,73.31a22.75,22.75,0,0,1,1.1-7.11A15.21,15.21,0,0,1,290,60.69a13.72,13.72,0,0,1,5.17-3.51,18.65,18.65,0,0,1,7.1-1.2,19,19,0,0,1,7.15,1.29,13.78,13.78,0,0,1,5.12,3.59,15.17,15.17,0,0,1,3.09,5.55,22.68,22.68,0,0,1,1,7.13,22.08,22.08,0,0,1-1.1,7,15,15,0,0,1-3.17,5.41,13.83,13.83,0,0,1-5.17,3.45A19.47,19.47,0,0,1,302,90.55a19.28,19.28,0,0,1-7.08-1.26,13.63,13.63,0,0,1-5.12-3.52,14.86,14.86,0,0,1-3.1-5.45A22.25,22.25,0,0,1,285.7,73.31Zm22,.15a11.75,11.75,0,0,0-1.33-6.27,4.62,4.62,0,0,0-4.17-2.2A4.56,4.56,0,0,0,298,67.13a12.1,12.1,0,0,0-1.38,6.26,11.82,11.82,0,0,0,1.3,6.21,4.55,4.55,0,0,0,4.13,2.2,4.62,4.62,0,0,0,4.21-2.15A11.68,11.68,0,0,0,307.68,73.46Zm-7.77,25.19a27,27,0,0,1,.44-3.86,21.39,21.39,0,0,1,1-3.73l17.43,2.61a28.55,28.55,0,0,1-.44,3.86,20.65,20.65,0,0,1-1,3.74Z"/><path class="cls-2" d="M353,88.6c-.73.25-1.59.5-2.6.75s-2.07.49-3.2.71a35.09,35.09,0,0,1-3.48.52,32.5,32.5,0,0,1-3.52.17,37.27,37.27,0,0,1-6.26-.56,12.87,12.87,0,0,1-5.26-2.11,10.67,10.67,0,0,1-3.58-4.56,19.53,19.53,0,0,1-1.28-8L324,56.89a23,23,0,0,1,2.79-.43c.91-.07,1.8-.11,2.65-.1s1.68,0,2.62.14a19.12,19.12,0,0,1,2.74.47l-.12,17.76c0,2.56.4,4.31,1.24,5.25a5,5,0,0,0,3.89,1.43,15.12,15.12,0,0,0,1.67,0,7.54,7.54,0,0,0,.83-.12L342.43,57a21.31,21.31,0,0,1,2.78-.43c.92-.08,1.8-.11,2.66-.11s1.68.06,2.62.15a19.11,19.11,0,0,1,2.74.46Z"/><path class="cls-2" d="M371,90.19c-1.1.16-2.11.28-3,.36s-1.71.12-2.43.12-1.53-.06-2.43-.15-1.87-.23-2.94-.4l.23-33a23.16,23.16,0,0,1,2.78-.43c.92-.07,1.8-.11,2.66-.11s1.68.06,2.61.15a19,19,0,0,1,2.75.47Z"/><path class="cls-2" d="M376.53,79.49a9.37,9.37,0,0,1,1.38-5.17,10.13,10.13,0,0,1,3.47-3.23,14.72,14.72,0,0,1,4.68-1.66,27,27,0,0,1,5-.45l3.9,0a3.44,3.44,0,0,0-.63-1.92,3.89,3.89,0,0,0-1.46-1.2,7.24,7.24,0,0,0-2-.58,16.23,16.23,0,0,0-2.23-.18,20.57,20.57,0,0,0-3.58.33,25.35,25.35,0,0,0-4.23,1.09c-.38-.73-.71-1.39-1-2a9.63,9.63,0,0,1-.62-1.83,12.9,12.9,0,0,1-.31-1.91,22.48,22.48,0,0,1-.08-2.27,40.9,40.9,0,0,1,6.11-1.5,34.14,34.14,0,0,1,5.47-.47,20.66,20.66,0,0,1,6,.84A11.81,11.81,0,0,1,401,59.91a10.9,10.9,0,0,1,2.88,4.27,16.69,16.69,0,0,1,1,6.17l-.13,18.73c-1.62.46-3.58.91-5.88,1.37a36.56,36.56,0,0,1-7.29.65,28.75,28.75,0,0,1-6.1-.65,13.66,13.66,0,0,1-4.75-2,9.44,9.44,0,0,1-3.08-3.57A12,12,0,0,1,376.53,79.49Zm15.06,3.68a13.39,13.39,0,0,0,1.66-.11,12.09,12.09,0,0,0,1.6-.25l0-7-3.64,0a7,7,0,0,0-3.78.93,3,3,0,0,0-1.55,2.67,3.15,3.15,0,0,0,.56,2,3.77,3.77,0,0,0,1.43,1.13,6.58,6.58,0,0,0,1.85.52A13.65,13.65,0,0,0,391.59,83.17Z"/><path class="cls-2" d="M411.77,57.62q3-.36,6.23-.6c2.16-.15,4.19-.22,6.11-.21q7.72,0,11.58,3A9.62,9.62,0,0,1,439.5,68a12.14,12.14,0,0,1-.47,3.45,11.36,11.36,0,0,1-1.11,2.52,7.5,7.5,0,0,1-1.35,1.68c-.47.42-.86.76-1.16,1l7.19,14a26.42,26.42,0,0,1-2.84.36c-1.05.08-2.06.11-3,.11q-1.79,0-3.45-.15a18.91,18.91,0,0,1-2.75-.41l-7-15.13.9-.5a8,8,0,0,0,3.09-2.7,6.08,6.08,0,0,0,.85-3.09,3.8,3.8,0,0,0-1-2.72,4.17,4.17,0,0,0-3.16-1.08,9,9,0,0,0-1.85.12l-.17,25.11a25.34,25.34,0,0,1-3,.4c-.89,0-1.68.08-2.37.08s-1.51,0-2.36-.12a26.45,26.45,0,0,1-2.94-.43Z"/><ellipse class="cls-2" cx="366" cy="47.56" rx="6.36" ry="5.15"/></svg>