<svg id="Capa_1" data-name="Capa 1" xmlns="http://www.w3.org/2000/svg" viewBox="0 0 50 50"><defs><style>.cls-1{fill:#fcfcfc;}</style></defs><path class="cls-1" d="M36.56,6.5H13.44A6.94,6.94,0,0,0,6.5,13.44V36.56a6.94,6.94,0,0,0,6.94,6.94H36.56a6.94,6.94,0,0,0,6.94-6.94V13.44A6.94,6.94,0,0,0,36.56,6.5ZM17.94,37.91H12.19l0-17.21h5.75Zm-3-19.46h0A2.91,2.91,0,1,1,15,12.64a2.91,2.91,0,1,1,0,5.81ZM37.87,37.91h-5.8V28.56c0-2.26-.6-3.8-2.62-3.8a2.92,2.92,0,0,0-2.78,2,3.76,3.76,0,0,0-.19,1.36v9.75H20.65l0-17.21h5.83l0,2.43a5.38,5.38,0,0,1,4.95-2.78c3.68,0,6.43,2.4,6.43,7.56v10Z"/></svg>