<svg id="Capa_1" data-name="Capa 1" xmlns="http://www.w3.org/2000/svg" viewBox="0 0 50 50"><defs><style>.cls-1{fill:#fcfcfc;fill-rule:evenodd;}</style></defs><path class="cls-1" d="M38.29,11.64A18.67,18.67,0,0,0,8.9,34.16L6.25,43.84l9.9-2.6a18.71,18.71,0,0,0,8.92,2.27h0A18.67,18.67,0,0,0,38.29,11.64ZM25.08,40.36h0a15.49,15.49,0,0,1-7.89-2.16l-.57-.34L10.73,39.4l1.57-5.73-.37-.58a15.52,15.52,0,1,1,13.15,7.27Zm8.51-11.62c-.47-.24-2.76-1.37-3.19-1.52s-.74-.23-1,.23-1.2,1.52-1.48,1.83-.54.35-1,.12a12.76,12.76,0,0,1-3.76-2.32,13.92,13.92,0,0,1-2.59-3.23c-.27-.47,0-.72.2-1a10.23,10.23,0,0,0,.7-.82,3.06,3.06,0,0,0,.47-.77.84.84,0,0,0,0-.82C21.73,20.26,20.8,18,20.41,17s-.76-.78-1.05-.8h-.89a1.73,1.73,0,0,0-1.25.59,5.23,5.23,0,0,0-1.63,3.88,9.09,9.09,0,0,0,1.91,4.83c.23.31,3.29,5,8,7a26,26,0,0,0,2.65,1,6.39,6.39,0,0,0,2.95.19c.89-.13,2.76-1.13,3.15-2.22a3.9,3.9,0,0,0,.26-2.22C34.37,29.09,34.06,29,33.59,28.74Z"/></svg>