<svg id="Capa_1" data-name="Capa 1" xmlns="http://www.w3.org/2000/svg" viewBox="0 0 50 50"><defs><style>.cls-1{fill:#fcfcfc;}</style></defs><path class="cls-1" d="M16.67,6.25A10.41,10.41,0,0,0,6.25,16.67V33.33A10.41,10.41,0,0,0,16.67,43.75H33.33A10.41,10.41,0,0,0,43.75,33.33V16.67A10.41,10.41,0,0,0,33.33,6.25ZM37.5,10.42a2.08,2.08,0,1,1-2.08,2.08A2.08,2.08,0,0,1,37.5,10.42ZM25,14.58A10.42,10.42,0,1,1,14.58,25,10.43,10.43,0,0,1,25,14.58Zm0,4.17A6.25,6.25,0,1,0,31.25,25,6.25,6.25,0,0,0,25,18.75Z"/></svg>