<svg id="Capa_1" data-name="Capa 1" xmlns="http://www.w3.org/2000/svg" viewBox="0 0 50 50"><defs><style>.cls-1{fill:#fcfcfc;}</style></defs><path class="cls-1" d="M22.81,6.19a19.47,19.47,0,0,0-4.88,37.52.9.9,0,0,0,1.17-1V39.61a8.27,8.27,0,0,1-1.76.19,4.2,4.2,0,0,1-4.1-3.71,4.12,4.12,0,0,0-1.18-2c-.58-.19-.78-.19-.78-.39,0-.39.59-.39.78-.39,1.18,0,2.15,1.37,2.54,2a3.57,3.57,0,0,0,2.74,1.95,3.85,3.85,0,0,0,1.76-.39,4.94,4.94,0,0,1,1.95-3.52c-4.49-1-7.81-3.51-7.81-7.81a9.18,9.18,0,0,1,2.34-5.86,7.43,7.43,0,0,1-.39-2.74,5.78,5.78,0,0,1,.39-2.54.63.63,0,0,1,.59-.59h.19a9.3,9.3,0,0,1,4.69,2.54A12.62,12.62,0,0,1,25,15.77a12.62,12.62,0,0,1,3.91.58,9.73,9.73,0,0,1,4.88-2.54H34c.39,0,.58.2.78.59v2.54a6.67,6.67,0,0,1-.39,2.74,8.77,8.77,0,0,1,2.34,5.86c0,4.3-3.32,6.84-7.81,7.81a6,6,0,0,1,1.95,4.5v5.08a1.06,1.06,0,0,0,1.37,1A19.62,19.62,0,0,0,22.81,6.19Z"/></svg>