<svg width="500" height="314" viewBox="0 0 500 314" fill="none" xmlns="http://www.w3.org/2000/svg">
<path fill-rule="evenodd" clip-rule="evenodd" d="M0 153.773V307.547L89.0127 306.973C176 306.411 178.312 306.312 190.669 302.552C208.992 296.978 222.176 289.446 233.9 277.856C251.127 260.827 257.015 245.518 256.94 217.947C256.886 197.171 253.113 183.537 243.503 169.387C235.022 156.899 219.835 145.861 205.868 142.034C201.815 140.924 201.94 140.73 209.056 137.073C219.658 131.624 232.366 118.204 237.462 107.07C245.483 89.551 244.72 57.7309 235.856 40.1038C230.48 29.4088 218.097 17.5123 206.666 12.0568C185.55 1.97937 181.248 1.57439 86.4815 0.750912L0 0V153.773ZM325.677 36.5467V52.5774H388.112H450.548V36.5467V20.5159H388.112H325.677V36.5467ZM152.712 56.1278C163.061 58.7332 173.253 67.8859 175.643 76.7214C178.27 86.4309 176.627 101.815 172.195 108.984C169.835 112.802 165.214 116.498 158.954 119.572C149.373 124.277 149.2 124.295 109.262 124.871L69.1852 125.448V89.8564V54.2648H107.249C129.422 54.2648 148.402 55.0427 152.712 56.1278ZM359.79 82.9835C322.153 92.8432 293.933 120.828 281.543 160.574C278.179 171.37 277.608 176.702 277.666 196.854C277.743 224.103 280.011 234.708 290.367 256.271C300.021 276.366 314.978 291.094 335.996 301.197C355.916 310.772 367.09 313.161 391.487 313.058C425.97 312.913 452.065 302.949 470.422 282.915C479.471 273.04 491.089 252.934 493.655 242.707L494.787 238.196H467.989H441.191L437.946 244.222C430.584 257.892 412.6 266.883 392.619 266.883C361.214 266.883 342.865 251.09 339.76 221.386L338.695 211.197H419.347H500L498.949 193.057C496.828 156.389 485.815 129.471 464.26 108.251C443.167 87.4856 422.523 79.5681 389.8 79.6946C377.979 79.7402 367.99 80.8337 359.79 82.9835ZM413.171 131.325C419.784 134.513 423.522 137.763 427.151 143.483C431.753 150.739 437.048 165.012 437.048 170.162C437.048 171.952 427.492 172.386 388.112 172.386C332.675 172.386 336.949 173.716 341.659 157.928C349.855 130.456 384.564 117.546 413.171 131.325ZM153.49 172.492C166.438 174.586 177.084 180.555 183.073 189.076C187.917 195.968 188.15 197.095 188.15 213.575C188.15 229.516 187.799 231.381 183.596 237.732C180.455 242.476 176 246.107 169.252 249.421L159.464 254.227L114.382 254.791L69.3017 255.356L68.8207 213.727C68.5575 190.831 68.6824 171.76 69.1009 171.343C70.4778 169.97 144.091 170.972 153.49 172.492Z" fill="#F2F2F2"/>
</svg>
